<?xml version="1.0" encoding="UTF-8"?>
<!DOCTYPE svg PUBLIC "-//W3C//DTD SVG 1.1//EN" "http://www.w3.org/Graphics/SVG/1.1/DTD/svg11.dtd">
<svg xmlns="http://www.w3.org/2000/svg" version="1.1" width="2000px" height="1060px" style="shape-rendering:geometricPrecision; text-rendering:geometricPrecision; image-rendering:optimizeQuality; fill-rule:evenodd; clip-rule:evenodd" xmlns:xlink="http://www.w3.org/1999/xlink">
<g><path style="opacity:0.988" fill="#fefffe" d="M 1785.5,-0.5 C 1795.5,-0.5 1805.5,-0.5 1815.5,-0.5C 1851.97,5.49056 1885.64,18.6572 1916.5,39C 1922.21,43.1953 1927.54,47.862 1932.5,53C 1860.89,125.237 1796.06,202.737 1738,285.5C 1702.43,337.276 1671.43,391.942 1645,449.5C 1605.06,529.154 1573.89,612.154 1551.5,698.5C 1551.48,700.373 1551.98,700.706 1553,699.5C 1607.66,627.149 1668.5,559.982 1735.5,498C 1755.37,480.793 1776.37,465.126 1798.5,451C 1815.33,440.584 1833.33,432.917 1852.5,428C 1874.09,423.512 1895.09,425.512 1915.5,434C 1948.66,448.157 1976.33,469.49 1998.5,498C 1975.48,523.678 1953.98,550.512 1934,578.5C 1890.63,639.866 1852.3,704.533 1819,772.5C 1806.3,798.584 1795.97,825.584 1788,853.5C 1785.36,863.787 1785.02,874.12 1787,884.5C 1788.39,887.945 1790.89,890.111 1794.5,891C 1811.38,893.123 1827.38,890.29 1842.5,882.5C 1848.11,888.389 1850.95,895.389 1851,903.5C 1847.91,907.798 1844.08,911.298 1839.5,914C 1812.53,929.652 1784.19,942.318 1754.5,952C 1731.74,957.046 1712.91,950.546 1698,932.5C 1679.26,909.72 1673.92,884.053 1682,855.5C 1695.56,803.823 1712.89,753.489 1734,704.5C 1757,650.66 1781.5,597.493 1807.5,545C 1806.18,541.794 1803.85,540.794 1800.5,542C 1770.59,559.244 1742.92,579.578 1717.5,603C 1619.07,700.011 1539.9,810.844 1480,935.5C 1473.14,950.417 1466.47,965.417 1460,980.5C 1455.46,988.547 1448.96,994.214 1440.5,997.5C 1433.93,994.094 1428.76,989.094 1425,982.5C 1417.28,967.389 1410.94,951.723 1406,935.5C 1404.09,911.457 1404.75,887.457 1408,863.5C 1413.3,818.02 1421.3,773.02 1432,728.5C 1461.84,605.987 1501.84,486.987 1552,371.5C 1613.57,236.559 1691.4,112.559 1785.5,-0.5 Z"/></g>
<g><path style="opacity:0.987" fill="#fefffe" d="M 188.5,103.5 C 191.167,103.5 193.833,103.5 196.5,103.5C 199.07,161.39 206.236,218.723 218,275.5C 230.883,342.366 247.217,408.366 267,473.5C 273.958,496.045 282.292,518.045 292,539.5C 293.689,542.891 295.856,545.891 298.5,548.5C 403.384,433.652 488.884,305.319 555,163.5C 562,148.167 569,132.833 576,117.5C 610.607,120.039 641.774,131.872 669.5,153C 672.233,155.733 674.9,158.4 677.5,161C 603.021,249.806 529.855,339.639 458,430.5C 412.197,490.773 367.864,552.106 325,614.5C 292.268,721.762 266.935,830.762 249,941.5C 244.966,969.37 242.466,997.37 241.5,1025.5C 228.027,1025.32 214.693,1023.82 201.5,1021C 157.717,1012.97 114.717,1001.97 72.5,988C 69.8268,986.999 67.4935,985.499 65.5,983.5C 86.263,945.304 103.763,905.638 118,864.5C 146.732,783.47 173.566,701.803 198.5,619.5C 164.719,509.652 126.885,401.319 85,294.5C 70.0759,257.406 53.4092,221.073 35,185.5C 25.3593,167.041 13.8593,149.874 0.5,134C 7.19367,130.88 14.1937,128.547 21.5,127C 76.76,115.177 132.427,107.343 188.5,103.5 Z"/></g>
<g><path style="opacity:0.985" fill="#fefffe" d="M 1050.5,1059.5 C 1039.83,1059.5 1029.17,1059.5 1018.5,1059.5C 978.826,1046.33 948.993,1021.33 929,984.5C 926.162,978.821 924.662,972.821 924.5,966.5C 928.83,903.34 954.83,851.173 1002.5,810C 1047.82,773.158 1099.82,752.658 1158.5,748.5C 1158.59,731.692 1157.09,715.025 1154,698.5C 1145.84,660.384 1137.18,622.384 1128,584.5C 1117.47,535.344 1125.8,489.677 1153,447.5C 1178.6,406.234 1214.1,377.067 1259.5,360C 1264.24,358.44 1269.07,357.273 1274,356.5C 1279.19,357.343 1284.02,359.176 1288.5,362C 1325.1,387.259 1357.27,417.426 1385,452.5C 1393.46,463.091 1400.13,474.758 1405,487.5C 1403.23,526.152 1392.56,562.152 1373,595.5C 1369.67,600.167 1366.33,604.833 1363,609.5C 1359.13,613.846 1354.63,617.346 1349.5,620C 1336.62,621.794 1329.62,616.128 1328.5,603C 1334.93,584.722 1340.76,566.222 1346,547.5C 1347.53,534.612 1344.53,522.946 1337,512.5C 1332.21,507.623 1326.38,504.956 1319.5,504.5C 1297.68,505.835 1280.18,515.169 1267,532.5C 1250.79,557.128 1240.45,584.128 1236,613.5C 1228.97,655.877 1226.13,698.544 1227.5,741.5C 1254.15,740.056 1280.82,739.556 1307.5,740C 1308.64,745.75 1308.81,751.584 1308,757.5C 1307.48,760.034 1306.32,762.2 1304.5,764C 1283.59,768.394 1262.92,773.727 1242.5,780C 1238.42,781.787 1234.59,783.954 1231,786.5C 1229.11,790.626 1227.94,794.959 1227.5,799.5C 1232.87,845.172 1228.37,889.838 1214,933.5C 1188.94,995.563 1144.1,1035.4 1079.5,1053C 1069.72,1055.25 1060.05,1057.42 1050.5,1059.5 Z M 1162.5,808.5 C 1163.27,823.947 1161.44,839.28 1157,854.5C 1138.56,915.578 1102.72,963.412 1049.5,998C 1042.74,1001.89 1035.74,1004.89 1028.5,1007C 1007.21,989.571 1002.04,968.071 1013,942.5C 1041.14,886.359 1083.31,844.192 1139.5,816C 1147.12,812.96 1154.79,810.46 1162.5,808.5 Z"/></g>
<g><path style="opacity:0.986" fill="#fefffe" d="M 747.5,420.5 C 757.629,423.795 766.962,428.629 775.5,435C 800.443,453.095 819.61,475.929 833,503.5C 833.995,506.126 834.328,508.793 834,511.5C 804.345,517.715 777.179,529.548 752.5,547C 667.41,612.279 608.243,696.112 575,798.5C 568.354,821.712 564.52,845.378 563.5,869.5C 563.068,879.306 566.068,887.806 572.5,895C 574.56,896.696 576.893,897.863 579.5,898.5C 586.481,896.843 593.147,894.343 599.5,891C 617.755,879.424 634.255,865.591 649,849.5C 668.878,826.068 687.545,801.734 705,776.5C 724.417,747.339 743.084,717.672 761,687.5C 799.473,620.896 835.64,552.896 869.5,483.5C 898.908,483.803 925.242,492.97 948.5,511C 951.851,514.039 954.184,517.706 955.5,522C 921.675,592.159 893.841,664.659 872,739.5C 860.246,779.522 853.413,820.355 851.5,862C 851.259,881.315 854.093,900.149 860,918.5C 864.636,929.461 871.803,938.295 881.5,945C 849.844,963.666 816.177,968.999 780.5,961C 767.21,955.043 758.044,945.209 753,931.5C 747.24,915.021 744.407,898.021 744.5,880.5C 745.978,849.965 750.811,819.965 759,790.5C 765.036,770.401 771.036,750.401 777,730.5C 743.181,800.652 698.681,863.152 643.5,918C 623.655,935.835 601.655,950.502 577.5,962C 556.237,970.406 535.904,968.406 516.5,956C 493.698,939.504 478.198,917.67 470,890.5C 459.743,851.111 458.743,811.444 467,771.5C 494.245,651.45 553.412,550.617 644.5,469C 664.865,451.661 687.531,437.994 712.5,428C 724.045,424.26 735.711,421.76 747.5,420.5 Z"/></g>
</svg>
